<mxfile host="app.diagrams.net" modified="2024-03-22T08:04:05.514Z" agent="Mozilla/5.0 (Macintosh; Intel Mac OS X 10_15_7) AppleWebKit/605.1.15 (KHTML, like Gecko) Version/17.4 Safari/605.1.15" etag="HoAq2aNt3u6i-VbWOUjI" version="24.0.7" type="github">
  <diagram name="第 1 页" id="_pog95JNpfeYfv-x9ba1">
    <mxGraphModel dx="1546" dy="996" grid="0" gridSize="10" guides="1" tooltips="1" connect="1" arrows="1" fold="1" page="0" pageScale="1" pageWidth="827" pageHeight="1169" math="0" shadow="0">
      <root>
        <mxCell id="0" />
        <mxCell id="1" parent="0" />
        <mxCell id="0eACBZtsxag7v1_vRN_W-1" value="Text" style="text;strokeColor=none;fillColor=none;html=1;align=center;verticalAlign=middle;whiteSpace=wrap;rounded=0;fontSize=16;labelBackgroundColor=none;sketch=1;curveFitting=1;jiggle=2;" parent="1" vertex="1">
          <mxGeometry x="-119" y="283" width="60" height="30" as="geometry" />
        </mxCell>
        <mxCell id="0eACBZtsxag7v1_vRN_W-2" value="" style="rounded=0;whiteSpace=wrap;html=1;labelBackgroundColor=none;sketch=1;curveFitting=1;jiggle=2;" parent="1" vertex="1">
          <mxGeometry x="-148" y="56" width="160" height="80" as="geometry" />
        </mxCell>
        <mxCell id="0eACBZtsxag7v1_vRN_W-3" value="" style="edgeStyle=none;orthogonalLoop=1;jettySize=auto;html=1;rounded=0;fontSize=12;startSize=8;endSize=8;curved=1;exitX=1;exitY=0.5;exitDx=0;exitDy=0;labelBackgroundColor=none;fontColor=default;sketch=1;curveFitting=1;jiggle=2;" parent="1" source="0eACBZtsxag7v1_vRN_W-2" target="0eACBZtsxag7v1_vRN_W-5" edge="1">
          <mxGeometry width="140" relative="1" as="geometry">
            <mxPoint x="135" y="205" as="sourcePoint" />
            <mxPoint x="103" y="99" as="targetPoint" />
            <Array as="points" />
          </mxGeometry>
        </mxCell>
        <mxCell id="0eACBZtsxag7v1_vRN_W-4" value="" style="shape=stencil(fZbdcgIhDIWfZm8zQAg/17Z9j85U606tdqz9e/tmZ0c0uJ47xP0I5JwEBl59bp8/1kNwn6fj4W39M76ctgM/DCGM++36OJ50NPDjwKvN4bh+PR6+9i/z74/n6ctp9H74nlb4nbmSKZeJCu5vngmZ6jzzNAO7cX8FVKEsBuBKrgKg9oAE8gkCbLeUhEoEQKSUDZDLeWYRKIl8MEDRmHwfyBrBG6Amyu4+kDxxMoB3jhwgYu7TVAsVkFcWCs4CTBEoF4RctKeOxHIf8IXYpikHikAIf+MNUW94AGSSaoAoFIE3AlOyeWU+p2E5S9yfQZcQILVuQOwZdJNoS9Ls3wA5u2XZTIHECqeJ9kDpSaauRiNVcAY1QhdBzeLBli5WazpkSsBLV25uRaqWRyFawTQzRRIQYirJzq5atkBqLfouwqUxLBepthWb10vrWZY6UOAeyKCCtDV625mm9gmUC4Wc3VLJMMIE1BsA2FW9JraVlQB7n3c9oMKhCLEvIM1zBPZ25/umNQ1tVEC2G+fFCC8g398O2hNQuQlVu752DBfA+q0ptnqO5JFmeuIuo9DY7KjY71UxdJV4EntifPWorW++R/dC4t7V3DlIB5cHx2bc7eb3yvX//QNFp+bHDT/+Aw==);lineShape=1;labelBackgroundColor=none;sketch=1;curveFitting=1;jiggle=2;rounded=0;" parent="1" vertex="1">
          <mxGeometry x="161.86796084247567" y="-109.1246875414808" width="4.672539772115442" height="4.665236216357528" as="geometry" />
        </mxCell>
        <mxCell id="0eACBZtsxag7v1_vRN_W-5" value="" style="rounded=0;whiteSpace=wrap;html=1;rotation=4;direction=south;labelBackgroundColor=none;sketch=1;curveFitting=1;jiggle=2;" parent="1" vertex="1">
          <mxGeometry x="63" y="19" width="80" height="160" as="geometry" />
        </mxCell>
        <mxCell id="0eACBZtsxag7v1_vRN_W-6" value="" style="shape=stencil(lVfZbttADPwavxJ7H89p+h8B4tRG3Thw3OvvO6qwiklZU/RNtjgil8dwdhcf3g9Pb/tdcO/Xy/nr/ufx+XrYxU+7EI6vh/3leMXTLj7u4sPL+bL/cjl/f32ef789TZbT07fzj+kLv2acE5cnUHC/5z9KFxf//vN5tj8dX5V9Kco+4Qtu275I6sq+ia/b5t5J88oe4QRiX8Tp7/sgvm8DQpDiNCBLKtuA6CQ0DahSEgE0qUEDuniS0lQlag/IMktSztJ0ETx8siJE6ebQURrxUL0EXYYmJRN7pEQfIUkkZWtRfNIBjbLct6+S9Pd513VnM4Qqkvh7l6jbCAdIpI0AqBoQvbRGAV0DMDiZh9SrBnTJ3IPpu9zoKAMQtIeS6bD1ZqsMsmisDNUeGo3VWFqrhBXAkensZfTlEhJahYVUxiwuAD983gdkW+kcx7xuAYopXBrdu+lBA2KWTBimr0gvVN6tRbIBePEsraiDzhJIL7CQUGlDeki0573krYfOAOhW7QFUnvgAmW7FLqFnwMTpXoqVTpx3CwstpS6Ux+CimRnNEnlMSRNlCTxNbQzYAmi8N5rNK0YuMxao4/UNoPAZbdmGRM9QLAtggWXu4Q6A7DfsB0MbIFe24KYFZHRPHiOyteHMBKUojq3carME2gjk0Mi62VmJ64ySRgA3zccAeG2GGlzpSLeulcykPJi4gm7RLIAgOxmgSY2ZnVWGlNjSe9kAqlRyaMjBvlpyTO9Bstoz9EG397O02kDoFXbmIdUWLQaPTIDaeFqhRBktxXQQAI3HbB8sMDZswe5DUA6LJ1hC+iDm+wUY2Vg2iePq0FtFj4BYwVZiEgdmsseN9N0ktNLvG6pAwRrhRzck0WKPbU4Ye7WlKnQe2Wv/fyf8lz0ePi6gL8fTab6/3r63F1b8NV924+Mf);lineShape=1;labelBackgroundColor=none;sketch=1;curveFitting=1;jiggle=2;rounded=0;" parent="1" vertex="1">
          <mxGeometry x="122.36141883539722" y="121.14582119540978" width="83.45196359527881" height="6.48236703045427" as="geometry" />
        </mxCell>
        <mxCell id="0eACBZtsxag7v1_vRN_W-7" value="" style="shape=stencil(lVfRchoxDPyae9VYsn22n9P0PzITUphSyBDSNn8fU+qAF24P3o67XWNJq5U9+Ie35dPrYjD3tt9tfy7+rJ73y8F/G8xWm+Vit9rXp8E/Dv7hZbtb/Nht3zfPx9+vTwfk4enX9vdhhb9HXikS3YFl7uPrTYn/3nw/EtarzRlhVNHUEcYgwU8TfBLrCUEl5mmCBXGxI1iSotMETRLHnuAklWlCktzjteIDCUFKjx/FOxIApjRINAZX6+BJHIGrZN/BswQSq0qA+spIQq2JUID/j30CbgZwI3t34hyEmkhhXUvEKe8uMbgWyDsTppPYh2oSiPCraPu8O7oZleQQTjSjKMkKJ3k3zEwtBKlqlVgAeCSZMTEFeKF6tz4zOtMe5gCeKFyxTCwzKqUA3JNQL7rJZrppBKehra1tsbPVmZGJB+Nrip6AW4REZqpIaA+dCVUzwB1xbW0CPGlmpKt7hHta1ZABrrSqI67uaN4z6p07cEm4GZL3WkR0AmZLhmWqlkxXv2g+vhkw7GprfO8oMXY4qK2J3WTUUnMGOHfgO+Gh71U/4wQOh7zRYZP7ROYZf/c4ypgItNlKg8d2SLhNkV4caT5rijrBWZkCaibSUDMaduGmlzCTWglsmIU2Xr50MLZRPnUChUkfXNvj1Bk3QLWsae8qoZ6ZUy+ekukMrIQckBA4oSgSIslSKXhorYRENHQgFCQUJjp3cZyrazBbvvIXpc2BW4Mos1ErEtgR80oh6hvSDFdKzS9M9fPYd9tZ4qYYMd/NuOsWdwOhPpwujS+r9fp45zz/jpfM+up4QfWPnw==);lineShape=1;labelBackgroundColor=none;sketch=1;curveFitting=1;jiggle=2;rounded=0;" parent="1" vertex="1">
          <mxGeometry x="272.62816748966816" y="-4.428269203004788" width="432.9673574117319" height="181.01344900643846" as="geometry" />
        </mxCell>
        <mxCell id="0eACBZtsxag7v1_vRN_W-8" value="" style="shape=stencil(nVfZctswDPwav2JIguDxnKb/kZk4taeunXGcHn9fqC5VAba2077JMle4Flhwww9vu6fX7SaFt8v59Hn7bf982W34wyal/XG3Pe8v+rThxw0/vJzO20/n0/vx+fr79Wk6OT19OX2dvvD9ikuRapxQKfz4/aaRyK83H6+Aw/64BDRq1QBiJk7rgBwoWguZKjgv2RsIFML6+ZooJusQNRBAK9SzPa8G2jqgF2psU8RU6joghtnjOeQwnLxvQkiKAUijBIJumnPrUxWKfR1QOhVroTWYJmFiG0OvVIEFVgd8XnHlYqdufepMggCJii11C9QjBIgNojRY61g8QCqFDNidSaxLuQz+3s9rotysS0rgAvunW5eqcgMAEiXbbzVDjwJxt+cjMciRFtVWrVQqqGrD2/k8U2dApMHL+XygCvyvJDah2jsZfF9JESxRtcYR9XMZ9pcAQLsp5BuXYMmEQvcxC7JQqUWf1IIAnaLLaqUEiK1z3jWn0iKAtKpLLmjlnYC0qg4km9ZaKYMJo8xLNobaISAKFVtpnRcM6qBK0NkDAkhrGcxf9GYGMbPXKh3baIAFajYAVTsBEd8Ij867BgIOVBzvBApVuulN3R8Aiwolm09RHqJZEe7M34wqJkMnZ4DqO+JE9ylVCxUtPOw5oTEUBFDFcElKUNb+BxCdhoSh1vdpp83sANo5oG5cRk7mRohwRorywI2LMnToPjPSIOaCeh2Nee1N65KuKGghqTwW2QFg3R+AsKkDbLtTBzmU5k41eEBDuzD7wunWxGCo5uizxDpm0RbWfaWn2iO1rWOXXe6qaISJ1/9pQ0FcSsPjGYC5pFol7C00ULh0s9LneUlZkx4XtGYJ7Rjphq2aN7RIKhGcMkz7MerpMNi/YCsqnFpws57DoOMa4B+ven8H6MOfm+XL/nC4XkyX//ubqL663mL58Sc=);lineShape=1;labelBackgroundColor=none;sketch=1;curveFitting=1;jiggle=2;rounded=0;" parent="1" vertex="1">
          <mxGeometry x="281.1574029945448" y="105.81171205145756" width="18.007663464561347" height="22.506915975219044" as="geometry" />
        </mxCell>
        <mxCell id="0eACBZtsxag7v1_vRN_W-9" value="" style="shape=stencil(7VnLUhtBDPwaX1XzfpwJ+Q+qMMEVgikDefx9euPMsKPxdipVOeTAzawlr0bdklrDzl8939887XfOPL+cjp/33w63L/c7/2Hn3OHxfn86vODTzl/v/NXd8bT/dDq+Pt6e/366WSyXT1+OX5df+H72c0F8Wbyc+XF+4qXmXw8+nu0fDo9reyvFD/a2SjXEwYir4wusBL/tYIuk0SF4SYk4ZDGjQ4xSAnGIEu3gkLKkQhyQkzA45CKZheTEmcGhFHHs0EZSHhxqkEzSWiWPEdUszjJ7r+yLGBJQaQlZ2ee4bZ+ljCmt/Y0X7VPL38qeZTRKctq+EshC41inqTFiSEK9uKxfUEhCXUv3yj44grB4oxNayIFBCKvtLQHAiFXxZwpAz0a3TxJIQvH7CoAOyQYAfizKwqu4asLlJIY0Ips0AKmIJwEBYUW5ZMUQB/Sp34zvfSVIYRSqmnShUoxD0qzGE0/egMYWxzOEKI6ghiOqvoKQDKFRLBJGXkQgQ3gUvdgRuBTEkMIJWTNj6b4kJJ9b1js1nBR2BqvfkINYdoaqiw3kY8CBanZEOlc6QXKWPOKAcogkpOolqPoBNViDj5KddsiE3ugPaeRSwRMyEtDg1JzFUKvsDGC/GiJGIgup6jlb+yDdcnBqjHjatXHoqtpqbI3zsgO6kAop0T68BDA5sAKqthFh5RDrtkOpWrItQZJDA9c4AgdxUckZFqpNaY1MLcRp/FuqCkuPeEUNR6gBh6roXWjF4esw0ZvpTgSgHQAcI5+7UHGOAAeqqZkLB1oPULbTGVi7r5NsW9LA6F2byuwOXFetZNQKasrvqmcWyETTVJqQWmthJh3Q6KaiLixNYSqIxLuxm9RbaoP13zhkO+k3DDnCjYTOOKqT0qfY1qBOY58Bmeigjm1D6A6BVpA3GgdMxciWSSd1pAYmu2Wie+ozKdJO5i+JPuaAXdOMOMS+Xm6lVSGNJ4ZtJkm3jZjo6gZZqTRcMuLZoZ3WcMgSE65Iaygah0AOjZ0/TEhnptanfWxprqwbv++37/vt/7zf2olAnkrVfq226r5Mz0NlqqUH+SElmbWKxFbF8lm01MZuyeKx0z0eWiVbqqzVcx/zgWlC69oauLpaZJoQTSWOOQUELKKg7y5dWxS37gmVDLZ0wtqkt0JDZ43NGmNIUBZ/0beKnbRbXVotCrxF4GuFmKGjb64B0164Ne7VIDO0RQBONZZAKRZ/aFcbb/g69vtB4+sbIJv2f3VX/kd7fHi7mL87PDyc7/XX3+uLfDw6/xPAX/8E);lineShape=1;labelBackgroundColor=none;sketch=1;curveFitting=1;jiggle=2;rounded=0;" parent="1" vertex="1">
          <mxGeometry x="310.5467152999852" y="82.36572746543925" width="33.14103364376615" height="45.30885551871461" as="geometry" />
        </mxCell>
        <mxCell id="0eACBZtsxag7v1_vRN_W-10" value="" style="shape=stencil(lVjLctswDPwaXTEkQRLkOU3/IzNxak9dO+O4r78vVA9lEYw2k5siY0UCu8CSmfjhbf/0upuCe7tezt93vw/P1/3EX6YQDqf97nK46tPEjxM/vJwvu2+X88/T8+3v16c5cn76cf41f+HPDRcpphkU3N/bCx+puv9vvt7ij4fTKt4XitkCIm8DQiEpPSBQrduA6IhdD/DkACAxuX5LhTKIz4lS7OIT1bIdL5mk/z4Ty3Z8SZRNTSmACtVAQbp4Rw5R4Jbf7xtCnFXdULEVLaBCpVLud6S0oxVKIN8DglBNoKZM0nPAqhOwgpJmVkiOEqhqUta4A+RAyQPdaYo9zYLLGgO5fkslkgNC4kFISj1imrnVZAEI+QCaLVpl1Ny6aQtgV9DuQCukIQcdGAggtkoKSBkOjFgtIAK1hkqlWADSEvtG0yppj4jzVMUCCgIEimJ5EFAlXrS5YjpjgDfEad1wDmbK1EoB9AM78t4C5INJb+aew5NMtcHBLoFG8X1SrwAZzGLVdxmy9iBrBYx1ZTDJdPaarJU5RIQC7JYyJaTvxWBX6hPUQYl40Ddy0JCb1lYdlFHShdwAgEnXIQddAfWoI/FDDripJVhABnLVDuJkeUAnmblHB6YZ92gwPBQKKIfPApQ420AJGsTc1EbejgLQEie7gno9cpTZFfsqyeKT7wOqFV920CCSkPQGodYdwQo5W7WqE0eQw2z8PUBbKoKyFtdOnMvo0zUjAJR2eFmSpgjipbaS3M+46EyZi532XhsK1Cil1o4LgOG0V54tIEObVullc3MokGdfmykvLKidoCNfK8kqHrlJtPeGOR5NParRxguI11PDsB8G+1muOUuBarOKd+PdcBVTRwf7ccP3S5toW/GGYaECukBnS7XxyHbccE9SBQFv9nZgez2FoQNJq8YqntGsI/Y2HjXxZ+/OH8frw/2i/nI4Hm/3/PXv9mKvr27/FODHfw==);lineShape=1;labelBackgroundColor=none;sketch=1;curveFitting=1;jiggle=2;rounded=0;" parent="1" vertex="1">
          <mxGeometry x="269.23552124952425" y="162.61881201417555" width="36.438148383364705" height="57.86822893416979" as="geometry" />
        </mxCell>
        <mxCell id="0eACBZtsxag7v1_vRN_W-11" value="" style="shape=stencil(7VjLbhsxDPwaXwk9KfGcpv8RIE5jNI0Dx339fbl1tV5RuxPkVqC9rdcciSJnSK528eb18e5lvwvu9Xw6ft5/P9yfH3fxwy6Ew/Pj/nQ469Mu3u7izcPxtP90On59vr/8frmbLKenL8dv0wo/Ljj2VHhCBffz8iaSc79ffLzYPx2eF/ZZSHJnL1QE2Bfy/fq+UEAbBMqhA4RCzm8DElM0J6gkYRsQhbjfIXsS4FKc/24AzuTSNiAk8n2QClMFAI2JOXTltsQ6IFEpfRp8S8w6IBNLD0gUkEt6xGoBlaFLzjAjUwJ58IG4WECtAOAbEWYAUwDUEPLV2kdAVmVmsfYJrJ/bakt/wAHiyoEF+BPIi7XPKEArGXCAFI5iz2tNcQKccK00zPYRit9Z7au9j5Bzf7afZVAhIDBxz4iayWPtm/JVtd4UkOJIYlzyFIBLXKzQJgDQTXUDIFABO0xB7MNacUkVaesteBFAlBQgBqBCAImWOnSFQgXtwE3pM6C2irZ1aLuDUAbcFkdpAKAKqRXXltQ3AHEoF9glzXSMw6GBnkttzFmGFVCjrFWwDKihgDSUJERvdamaMyTYCyf2961NU+lApmuiaKgRYB9R9ssA8MAlbZWcLQDVbT2iiAVU1HjKUOljU/mW4tJQitEO3o3FmGFcpy1M9yyNj5uHGDSakOTy4JLgHTQRbAFoxphS3SdiEYdNNondAknoWt4XABTXSRHJhsm/T3MMB9b3A3zjztwhBEooV3KmB2mkwaFjsROu1lvUUv7Pn3/l/MlQPP/a/OmGeDoSQLlEbGbDmbSbBOp7Ycmtna4DtOD2xYgTnG+VEqWnqH7bIpemb9veJf16hoBik6ZDeABJThrD3iXPsI0kTaq9YvAgy4lbSGaPWtS27HO/vocsSsU2Tg9Vn6qlhWtJWVexs2XCwa6ZvR2FXaveW58wNVh7dAMzcMjBBphL+za42gfkz9xPr/YMVMYajmTij8Y79o2Pi/yC+E9XYL3IAkXAz/demb1trw/X+7mHw9PT5Xpv+b+9z9NXl7vAePsL);lineShape=1;labelBackgroundColor=none;sketch=1;curveFitting=1;jiggle=2;rounded=0;" parent="1" vertex="1">
          <mxGeometry x="302.3921098303133" y="155.4543525238489" width="19.665968952877392" height="56.95419955242687" as="geometry" />
        </mxCell>
        <mxCell id="0eACBZtsxag7v1_vRN_W-12" value="" style="shape=stencil(lVfZctswDPwav2JIAjzwnKb/kZk4taeunXHc6+8L1WPVgKJt+yZRXBHHYgFu+OFt9/S63ZT0djmfPm+/758vuw1/2JSyP+625/3Fnjb8uOGHl9N5++l8+np8vr6/Pk07p6cvp2/TH35ccTlT4QlV0s/rCleq7ffKxyvgsD/eAUqn6ds9gEn7OkCYenWAotTLOqBW6t6krJQHABRqw5sk1CowaZCqA9RGouCETuyd7ha3tA5oSql7gK3wOqAPkhpPQE6PQuKjZGc2cMJoNEoEoBPUDKgRMBBAYljNhyYA0EmzBwgxCKvOLs6ADtlqAPU+jEwJZFoHDfEAoZoBoMU8jE6ColRImweYV6CAhpmUHEATDeC0WcwjAhRRI1FemIRO6I2qRqc78MHymhZhRVzqhbr3wRKHStQAuqCGIh/k9r878iHVsP+VBb0VUGOimne6JygCoxJ7gFUckhlLU1+UaAXaqibGGk1S4LSVaPLU6EwMfNDZ4hkwV8i7gJwsKAGhMK52BHtxHUyCAH0BaFg2hIoXJot0QkomsSv+BWBhL57fd3F4v2m1SA6t8Ajry6FpWZg6au0SbTKCo1yXFIcH692o5gwQ1JWtFQO+lkbZc6MwrAibXiTGFXY5URIfJdwgmlnkfcZpMy63IALUUEnbNBUc0FseV6VVY0wryFpd8EJwX+cUyV2twwDRyBI1YJrpQHuwKTTLAoBaXGxYtj+D/TVOV+ZBAorBlL1g2IzJIEQ5DgE1EQN75q9zCsZNZ1f2B4mUSg2QIsUJwKbwDFidY9WItQVUZotbgw0paIC+MXLeb80UzTxUfL643RiyRqD/u8b8A8Ae/tyaXvaHw/XSdf893rJs6XpD48df);lineShape=1;labelBackgroundColor=none;sketch=1;curveFitting=1;jiggle=2;rounded=0;" parent="1" vertex="1">
          <mxGeometry x="324.7800370620157" y="194.03528612331115" width="17.456118298077854" height="21.822788575348568" as="geometry" />
        </mxCell>
        <mxCell id="0eACBZtsxag7v1_vRN_W-13" value="" style="shape=stencil(7VjLchpBDPwarqrRaJ5nx/kPVxkHKsS4MM7j76MNGVgJaOJjqnxbFvXsjNTd0u5C7l5XDy/LRQyv+9326/LH+nG/WsinRYzr59Vyt97r1ULuF3L3tN0tv+y2b8+Ph98vD1PkdPVt+31a4ecBx0I5TKgYfh3uRKaS/9z5fABs1s8zQBRqxQAkjiUuAzp1MYCUiOt1gAjFZAC5UGIASNTZAEqjmgAgj/UGoAWKHQKyPUNnag0CuFmAUI/wDGLT2jM1dGghtmfolRIonLCvdMdZ0sIVW4eud8CWYqUSDYBDoIC4oXmt/hEdAYRK8ABBAK2T+FNHxO9A4rZUqIEncB/UmVUugLxyo+JKLRSAIBSQXamZAipEomq3VMuQyGVuREr20CVRAvxOyj6nUVUQOENWjVqAPrOCOlSmbrekVpWARnugbiUXxgqX4yOV7uIZrZ8oFxePuK20Eb9+Ag6g8u02nqHrKfHZxsfhzNfim01oGnK9Ft/tecug4bX4v/ZzNFUStL7+7SwSWuokQxvPWAWTDLsHFFQxbTzRAzLaklbIkpox59pZTjs0+dZG0zjlNAJr0fhk3a5Azml8tgdIo9Fd23+0NVYRowSF4SInTgsQvWoyeM0I0qT42eKGJvOw8lN8xJpMXpMB5Ec53ZLLj6D4TpVd/hGlZ/306LtYNNqxbQEq7PnTSOCaGSWU0Dr4NVNAQRV7L6ApY1xKmSqoWSmec0mTBgA5U7Ekyh028FTO2qvAsn2Mjx/j4380Pk5bcl0n3DpDsG2hBsgNrr6XFzViIAiOZ8PLkcCX6zDKOhs30QTMxLbOyndkfOHMlTp8bT7z7cmIwbSms6gtwWT0IKPB+/ytTkLF5nPKGHopHxY6c2G0fhrZOMZjEy7+BYQ7tKOz4VHjUafVLhOLBxTEOPbj+DS/I5m990vKPwD04vTh5mm92Ry++8z/9x969NbhI5Hc/wY=);lineShape=1;labelBackgroundColor=none;sketch=1;curveFitting=1;jiggle=2;rounded=0;" parent="1" vertex="1">
          <mxGeometry x="349.8910996015295" y="183.7621286032197" width="26.69546799574755" height="26.53149460534769" as="geometry" />
        </mxCell>
        <mxCell id="0eACBZtsxag7v1_vRN_W-14" value="" style="shape=stencil(lVdbctswDDyNfzEk+AD5nab3yEyc2lM3zjhOH7cvVEWqAFnb5k+WvKKwD4DcpbvXw8PLfsfh9Xo5f93/OD5eD7v0acd8fD7sL8erXu3S/S7dPZ0v+y+X89vz4/j75WH453D17fx9eMPPEZcixTygOPwa77AQ1z93Po+A0/F5AeBEzQJSo9a3ATkSdwvolHgbUAO1ZgGBctgGiK4QDSBWyrINKJXYFa2ABmpIVMR+UqVStgHD42QAWSBLKXtaSycBLKlw75xMAGlQuCIkVodWSBLQQVdwgEoBFF21BrYAoQBorUK5WkAjiQDQKVqleyBBK3SqlqWeKABr1NnMM6BQyrCGd05mgFDCLLH1UscBGvJgrdH7JOWW0pE9oAOWito7ekAG5iuB0qqGCGjNjYKroU6vuA2oJNYaXXkDTUAB1X1SxH1J82ABTc2CmoCSaJVWezfg1sIT64sAZRTRuaksI4qtwc0DGlihpikui0+qCFAnThYRjSiizQM0ogGt0H1v7UwJKK0AXlmjIoD4otV8qLfW4mlVe2fUBJiCbfd9ruq20s0HKAalCRTxcQSvppx+FAJU6naFYaIAqcXrUOaU3/x/DJ4l3RsIaJVRE2dXYLU3qEDHbrYrRG0CSAdZsQoDJ93vTbAGQ5ez40RgAQtN55IjJFXnGdtmnxIlpJoOD2uLnKkgc0c/Q3VeoGavRnI1DI0NsKrG6JYlbZ0MAroiKQeqwEh52g7OpGoFYOtTprctRMBJKJZSdW4B718nIeL5GdlnMwpkSHfA0VKqdwSFs/s9wD8AzFMPXX4SAqxY1aLRSOc2ibSkFbCUboUH7YmH049rMGoMsAdQgJvQWhXS4cPnq/8A6MXf49zT8XQaT4PL5/74p7fGo2O6/w0=);lineShape=1;labelBackgroundColor=none;sketch=1;curveFitting=1;jiggle=2;rounded=0;" parent="1" vertex="1">
          <mxGeometry x="374.2169229764395" y="190.64133489069263" width="15.63076938427298" height="25.240417838999747" as="geometry" />
        </mxCell>
        <mxCell id="0eACBZtsxag7v1_vRN_W-15" value="" style="shape=stencil(lVZBctswDHyNrhiSIAninKb/yEyc2lPXzjhum/y+UBUpAm1vJjdZwppY7ALEwHcv24fnzZDCy/l0/Ln5u3s8bwf+NqS0O2w3p93Znga+H/ju6Xja/Dgdfx8ep9/PD2Pk+PTr+Gf8h9cJV6nWEZTC2/QiBgry/833KX6/O6ziU6HIHkAcbsdzI/Xx9v8gvkRq6uIL1XI7viaqPj5WYkBAIpXkAIwzktafkAsFvg1omUJHQSlUeMJ7yWeAVChCCyReNUmUESBTih4QKIKUmqVUHKAqcbsNUNOt9Se8n3kdUIhjz6EApVVIL6oUUUpKxesw1g0obQDtAGa+DAExO4AGygo5RG8+zSTAS/Y5eh3GMiBAoOL7zZIUUNZWZ4ofEwA3REukwR/RYI+K9h1k4jdQVxHijrXZCzV17evaBPp7BHjWxioC5Syl7EmPb4D7jLR0dmUqgHTjueqrDhLU1HUWdtWjGZA2b1TuAYIANjZ8lWx61oT97ZWWTA01tc4tvAB0lvIqYGXORTkm/WQM+GFpw00xCfWTSZnylwFg9tU6V3HlPgaA8QLxytkbAXbNrb+DWOCgYbO/t6tdvMiuMc+flxMKJaRc6m85rvBaNN1iH4+sIRRSnxCjGpF0BBiO1jRXfIm3oQREWxajpaI6D/Or8aEfegnzvWgEy7ABvnYfd6uewtstXmx6lQpaDXtDRIZTPs9NtcRHmM9XV9XP4+3hYy9+2u3301q9/t7v0fZq2sH5/h8=);lineShape=1;labelBackgroundColor=none;sketch=1;curveFitting=1;jiggle=2;rounded=0;" parent="1" vertex="1">
          <mxGeometry x="408.82944714182076" y="191.37092058252983" width="20.4775788419704" height="16.02674406172673" as="geometry" />
        </mxCell>
        <mxCell id="0eACBZtsxag7v1_vRN_W-16" value="" style="shape=stencil(lVbZbhsxDPyafR1QIqnjOU3/I0Cc2qgbB47T4+9Ld7GuKXuJ9k2r1YjHDElN/PC+fXrbTJneT8fD182P3fNpO/GnKefd63Zz3J1sNfHjxA8vh+Pmy/Hw8fo8f789nU+eV98O3883/JxxraKUMyrTr3mnJGT9s/N5Bux3r1cATSAP6Bm9rAMkoZMHNGReB3BC6Q6QiEC0jsgJemOC2jogZUgagygBQMHqzjdZdu4bAFV3vjJ6XT9v8WXPgvkT5CiDvf9Gi+b18xXVJ8hYqT3wX1G8QyyQIADLUBYPIHDgESvU6yh31IAC0ZFkzouy7nMmIJ8k7uBAqYWQPUAaJHCpMMTLQs1C4JIBuHld0MLMmktDDC2FLimPTHeCpjCtaSiFgiYhcckz3TtawHSW5fcVIAXiNvFln9YuoUsV4g1YV5OoXyD5+2uFBtVw6T6X6iyQwJ+E5BuYWs6CDOli/aI7izfgzNpX9QFwgcb9rsoNIIhYabnvEnKoU60g9tWMEulaxhTF3aLaTJDhfDQRakP3/tgFQb9uOo5BYyxIaLcqHO63AIKEdh2nYCrh2LQJ1nxdWh1pVDV0I1NrkCWQqZUhD7ojtMBEv2HZGmQJaOsM8rTppe3f5+F/nyP/ALDF39fPy26/nx9P1//H15JtzS8tfvwN);lineShape=1;labelBackgroundColor=none;sketch=1;curveFitting=1;jiggle=2;rounded=0;" parent="1" vertex="1">
          <mxGeometry x="416.72891753988733" y="161.09674939311253" width="6.1791993642607395" height="5.601508878520008" as="geometry" />
        </mxCell>
        <mxCell id="0eACBZtsxag7v1_vRN_W-17" value="" style="shape=stencil(lVfZbhsxDPyafSUoUudzmv5HgDi1UdcOHKfH35dbQ67F9U6QN1s7I1E8htSkD2/bp9fNJPx2Ph2/b37tns/bSb9MIrvDdnPane3XpI+TPrwcT5tvp+P74fny//VpRs6/fhx/zjv8vvBaIW0zS/jPZaVQ4H8LXy/4/e5wg8+Vogz40KiGdUJsFMtAECMoIDC1MBA0wRNUSeNAiEICCFKp6UgoVCs4IVIZTUpCEXgpMcloUsrEAgiN0ujWVPvK/TgUKnkgZCVJgGBxGO9QmDgDghCnkVAooUsrtTHSVSlG4NZMpQ6ExlTLOqH5XG0NOqlQXOAbSL1EMS/wwB71QTN8BhcOVN3+Fe7PlBd4Bvazj1jL8L6Gd/5JPatW8GUMcIuUgf3Srb3iFe5vXxf4gKqGCo94gdJiNSMe38D+ll3N26PgviF0c28cFFBCCAX1EfiAkBwhkwDpMoK4mBVYlHYHdUVpkg9OsBJZFI0C9a0UksejoOXukGvDYctboEPRE+yA0lCWavF4AQaFfvqNg1BWMIXqI4AcxIv9c3fZCt41WMsh1GsCJReACFVFF0ltVQD8/1m8ZQSPGVRNVkDGxeB13TpTAx6KtcvUlSA9y+8Li/jKzxl21xh7a7xpx6iV2Ujhek22wgNRsLR2YU42tKBCXqid3UoxwVV+TDCxLdKOoJUEVJpaAxxNspWI3Hr9fB0eLbfBHTJTGk0KJgfApFr9aMe9Sd9XO/bqwqQIH6h4PKMRR/2YhsVurvXi8AHtnymzwycQAdOq5uQXNqh5onEBoAr8P09MI17giHAj/tcc6hFcO8A9J/DMYvg4dtjUtWDtwmkMQO4RXHPopx5cH+Ptx//X3ctuv788Dm+/+9egLV1ekvr4Fw==);lineShape=1;labelBackgroundColor=none;sketch=1;curveFitting=1;jiggle=2;rounded=0;" parent="1" vertex="1">
          <mxGeometry x="426.1349624544064" y="174.0667017873468" width="27.796382815580728" height="48.57755185353835" as="geometry" />
        </mxCell>
        <mxCell id="0eACBZtsxag7v1_vRN_W-18" value="" style="shape=stencil(lVfZctswDPwav2JI8AKf0/Q/MhOn9tSNM47T4+8LVUPZhMSd5k2WuAYXxwLYhYf3w9Pbfsfu/Xo5f9//Oj5fD7vwZcd8fD3sL8erPu3C4y48vJwv+2+X88fr8/z77Wk6OT39OP+c/uH3jBNHIUwodn/mNz6Q539vvs6A0/H1DpALpdwDMnkZA1Kg0gPYUQ5jQIxUpAckqgAQIsWeQwiU4xjAaqF2gMgkdQzwQpw6QGLyCKBX4g6QHeSgV0r9lVKl4AFpplp6QCBBbmVyvVujWkggcNw+L4DSWG2nRiAXrQUP4lBCc+LCIUILolfqOeTFb5uA6ij6DlAqiQMAjXSfSyIUgZdqbZ8bQG0GQNo7R871CKYEWKsJ6UnU2GpqRKIaC5kEWSgU+mTSv4igqGtaASolBNBQG525+WEUOsnWRAax1kAJWxIQUIiNmwo5BMgrQGpFtQ1ITVbuQi0gm9SCkWN1Q0YALcneS+qGAtwqWpJ95CY3AKGpntgAlkuOQp2SBXhUQonKygLioGHK1XKoiENtPW0BaC4VCLAV5FtXGgKMDERyuKi5lzKtUY+upBR7dZ3eIO3L5FY1yggQVtlam81RamRnAQI4qNfjqqZhxWmkxZLOqOI+Cyildc275EMctOMYmclCHiSf9jTu3Zq5Zdd2p/ZNexdAhmqss0A2XY5hTTPbiakIzFbvrd7r4OhBCwoU+kCX1JrY5vlVT8wJTgJsEyklSkCUVlHWKbMCTfKpCcoyU0YYZc62FtQHGQ1wYtNCh8YCEk+HqdRbEChJmqjBUKAI0k4rwYxvrrW77fPSJPR2HjV0zRhD2MEZWrwtNEcFtcJgO5vKE0hR0bo0i0mbOEbN3PX3iU3CR+fNDqAlANR0Om+KkiI+b+JVsf+j7TjeNYsjh5pxR2UAbW5TxMxuyG0WGKXE57bP/wDow23ZfTmeTvOufP/dLsf6al6sw+Nf);lineShape=1;labelBackgroundColor=none;sketch=1;curveFitting=1;jiggle=2;rounded=0;" parent="1" vertex="1">
          <mxGeometry x="483.2959343154662" y="179.0427043167697" width="28.85272407155253" height="29.38286704221605" as="geometry" />
        </mxCell>
        <mxCell id="0eACBZtsxag7v1_vRN_W-19" value="" style="shape=stencil(lVfLctswDPwaXzEg+MQ5Tf8jM3FqT10747ivvy9Uj1oRlDbtTZa5IhfYBcBdfHg7PL3ud8Jvt+vl8/778fl22MUPO5Hj+bC/Hm/2tIuPu/jwcrnuP10vX8/P99+vT9PK6enL5dv0hR93nEZKbUIJ/7y/CYU4/H7z8Q44Hc8LQAuUQweo1Or2+tIopm59oarb67MSc7deSfL2+lQpS08gEbdtQMyU+gOJUEjbAEkk/Q5RSEGIQqaoHSBlKoCDUu03sCBI3F5fKfTrayAFDCqVnnEzxuA8gSnVHtCogZiGRlz6pAWKACCNVIcdCkhzGDgkUsAhC9XgSUeQtRKp9MIzqSPllUw59gCetbgOsDwED0BRKjqQZmoo0YHSwAGFtVqUHCBSBByq1QvHIRMDP0+A3AMKKT5Sc2FtVEEejLRLnDIJ2MHC2nrxTWpFma4rgAZImzQaDwDgaBNfSx4QUFkVX5SazpZaB9j32Ic1IT/woNZCGamV58K+sGhFfrDEOQ5xLv5bUWInjTAfch2QZvUvDFTRDmWu7EuLIi1ZIWseUJCBzMHZc0jYD9FFSWAHNcfJUCoTSJwB8pDpiPpPpOAADarVOLBrKDo7ZCtKeTAQo8rHnsM7gGyAPg+aICBaFeo5aJkLzzpgkLea44A0JPqmqBYlALBBw9WlwAwd1EhcWCsUn8xzyyKqCQSJ/fA2NV0gjGF9Zaht8X7OBU4+6nWXBArVBpnSb2AhQ/0wsldFwKpIyR/JBlg0D1fiPgXGAHUS9aPYO4qw0VTd9xkQ1mGet2kxgBqsw4EMgNqCAbJTNa6QBnBFO5jqAOeFS/4grKSBEjkZsc/CdMtAI736EdoA6J5kcfVezrDdGiD0zdCUh+4xZnXXFwyQgZSsvslwN6wo1ZlEPaAAcVvJ9WIq87i4Dvjf6+o/AOzh7+345Xg63S/Xy//9bdpe3W/i8fEX);lineShape=1;labelBackgroundColor=none;sketch=1;curveFitting=1;jiggle=2;rounded=0;" parent="1" vertex="1">
          <mxGeometry x="479.9510744398276" y="-2.1786836761790482" width="35.501125033906646" height="39.64087985612366" as="geometry" />
        </mxCell>
        <mxCell id="0eACBZtsxag7v1_vRN_W-20" value="" style="shape=stencil(lVfZbttADPwavRLLJfd6TtP/CBCnNurGgeNef1+6Am3typ4gbzo4Wh7DITXJw/v26W0zxfB+Oh6+b37vnk/bSb5MMe5et5vj7mRXkzxO8vByOG6+HQ8/X5/n+7ens+X56sfh1/kLf2YcJyrljIrh7/wkUGj/H3yd7fe714W9JMqhs2cqfN8+CQl39kJN79sXptDbV+J4375myrn3JxGn+4BW/HsOiIkERMzBMtKHLJVCAUdkatIBElMMIIhCkjpAzhRB1CVQ6k+okURAGaxsfZnNSQVRW92i9oAKY9BGrc9Sa6QIkKi1EdCAS8rOnAWgIq5WZ8ICgMhk5A59Wo0tJQNApNaztVlUgH0GGLjUhGqFAB1OYO/Y2wClUHtqWJZAx0mm2mepWqWBSxpI+w4y/kbgkuoKkD1vtwGVVFcngBiSpVVXMSBZUqp5zFJBJ+RR96wOGVAjFdeIRaVR4eyEOJAveWXuxcDDCYUyKJypUFh1XAAxaHFRWXYcqrQ4cy5qfFXP2+xro/SdZQN1kDXYEHWF7BNxoVtIX0KyEYl7bjT9EDCkyboWyYb4xLkAAg76swDN3vMOKJkYNURzjy8jiJ3xNwE2oYYetQmATsjVlfEyRpkqcqmMo912jYrkO/jrxS6A1Jh5LBzbdgIKZ3M/jvaKenpsaY4wqatxYh4qSBG7yF1oAd0PvlRcdysB6VntPaaB0Dz15VJqQI3YleS6GCrYYGScUhHuqXlsGPbRfntlI+nJHEgA06yMw/6FVe6zW/bH9nZxXelfdvv9/EewfD/+Atij+fdBHv8B);lineShape=1;labelBackgroundColor=none;sketch=1;curveFitting=1;jiggle=2;rounded=0;" parent="1" vertex="1">
          <mxGeometry x="495.04255551886763" y="21.04443201717777" width="14.552333548182105" height="27.84048729246524" as="geometry" />
        </mxCell>
        <mxCell id="0eACBZtsxag7v1_vRN_W-21" value="" style="shape=stencil(lVbLbhsxDPyavRISSVHSOU3/I0Cc2qhrB47TNn8fbhfrmrRFtLd9cCQOOUNpooe37dPrZsL0dj4dv29+7Z7P24m+TIi7w3Zz2p31aaLHiR5ejqfNt9Px/fC8vL8+zZHz04/jz3mF3wuOCXqaUZg+li+5QGl/vnxdAPvd4QpQBBIZAAPlcXxN0MXEJ0hpHN91ezTxM0DGgJwuC14yKlBrsAVDywagSUofAxp6Dq0C8RggDaoFKC0JWBflwLYNKa6TUiyeA+E4HoGriReGVMbxCbibeG08hvHJto0rVAraBtk2jTpQoDsCsesTQgp6VtdqXGQkIIFOc/ai0C1LUNAsPiMF5EAUShlty7SJJUhJf6OrUQprhA1Ss4AKGKXUV69fWSfcQQHW/UUHSLRDhW5JC64DZETauVnN1AIjqPK65VBpTXLUOLIcqpop4KDSKDeAHGovWa/VvFZhoG2264uE40UZO2+2dUCNvGlLquOmBPnrX5s/4yqswWwRmz/pmRDwLb5jKtyonjndOIcBozNBReTMjGGFcvcDW3fgaJyS74FyCM18FxDomsVPML7o6v6ho16nG0B0hJQbMwv0gHRBPy5UeDVoHHdgW9bSQ2XMpMXvUALSen/h4jlwlJKax0pDJ1g0I0nHj3NDD8uqM9cdtcyrHO8DBKob2y28gymgWdJE8Q4VxMm7rp69D+iQLQc1UI0ap4eblXduIBHgfy+e/wDQh7/33Jfdfr9ck6//+3uxflru1PT4CQ==);lineShape=1;labelBackgroundColor=none;sketch=1;curveFitting=1;jiggle=2;rounded=0;" parent="1" vertex="1">
          <mxGeometry x="515.6019548608215" y="27.556087272074024" width="16.892176722464683" height="9.501304940985506" as="geometry" />
        </mxCell>
        <mxCell id="0eACBZtsxag7v1_vRN_W-22" value="" style="shape=stencil(lVfLctswDPwaXTEkwRfOafofmYlTe+raGcdtk78vVA0VgZJ22ptMYY3XYkEN/PB2fHo9DMG93W/X74ffp+f7ceAvQwiny/FwO931aeDHgR9errfDt9v15+V5+v36NFqOTz+uv8Z/eJ9wUijGERXcx3TCgaL7e/J1ApxPlwWgKiAbQBQKaR9QCjnrIUeqfh+QM43vFoBSKdV9QGISNoAqVEFI0VGuBqBl8GUfEAol68E7Rw6UyadWlIULl0HW5G1Za6LC+/az+7mqiTLI2VHq+sxUQDzeUyoGoPEEYM+UxNgHYgH2mZztgaMI8vWVSunsUT2DJ7b/rwegYYFb+WZekwPxaDm4YykJikdZbRvgA2VQoBFgC+oLFTA3GlG0GWsLEk5ZLIfUZ8I1zV2PpanBdtOEvLesc83nHiviCoDGQGlXu5AqCRhl5XXtkk7tZBvgiO1kahkSmDRpczL3LVMGEUnjzWzvob2+7gRVlQXZB6rWAbeMdqXL9kB7BnintKyryUS0W0mRw7wOJHYyA+ywDm7tFk5zuDdojvsGQGnJxDbhUcyQh9TW0ZyBw2IR2+AuSMpAfbcBqGkakhUL3aLQw6pKWYkLAJyb3s6ACnkXM4kd5Tx3fnvvFwqlzwExNeuWtyFFPGolN2bOZdXrD0i65n4LjvIB7i61tovHvPeb7G/br9QiwxqJ7/ucoWILt7vZp30F+it66+juXuRQPGW1Bh0G1F4tVM8KkBfRldRNZ2oCuAeQDiDEYJwXd7/FphWAUBfdZWpsA866dB4EL5H/vcf/A0AfPj8bXk7n8/TVsXzff2bo0fSJwo9/AA==);lineShape=1;labelBackgroundColor=none;sketch=1;curveFitting=1;jiggle=2;rounded=0;" parent="1" vertex="1">
          <mxGeometry x="531.0276660709023" y="26.005406354064235" width="26.0519724080782" height="13.998291167178195" as="geometry" />
        </mxCell>
        <mxCell id="-FksHN_BNnJyAKAI8ABf-1" value="" style="curved=1;endArrow=classic;html=1;rounded=0;sketch=1;hachureGap=4;jiggle=2;curveFitting=1;fontFamily=Architects Daughter;fontSource=https%3A%2F%2Ffonts.googleapis.com%2Fcss%3Ffamily%3DArchitects%2BDaughter;labelBackgroundColor=none;fontColor=default;" edge="1" parent="1" target="-FksHN_BNnJyAKAI8ABf-2">
          <mxGeometry width="50" height="50" relative="1" as="geometry">
            <mxPoint x="-11" y="229" as="sourcePoint" />
            <mxPoint x="39" y="179" as="targetPoint" />
            <Array as="points">
              <mxPoint x="39" y="229" />
              <mxPoint x="-11" y="179" />
            </Array>
          </mxGeometry>
        </mxCell>
        <mxCell id="-FksHN_BNnJyAKAI8ABf-2" value="" style="html=1;verticalLabelPosition=bottom;labelBackgroundColor=none;verticalAlign=top;shadow=0;dashed=0;strokeWidth=2;shape=mxgraph.ios7.misc.number_pad;strokeWidth=1;sketch=1;hachureGap=4;jiggle=2;curveFitting=1;fontFamily=Architects Daughter;fontSource=https%3A%2F%2Ffonts.googleapis.com%2Fcss%3Ffamily%3DArchitects%2BDaughter;rounded=0;" vertex="1" parent="1">
          <mxGeometry x="109" y="276" width="140" height="160" as="geometry" />
        </mxCell>
        <mxCell id="-FksHN_BNnJyAKAI8ABf-3" value="Condition" style="rhombus;whiteSpace=wrap;html=1;sketch=1;hachureGap=4;jiggle=2;curveFitting=1;fontFamily=Architects Daughter;fontSource=https%3A%2F%2Ffonts.googleapis.com%2Fcss%3Ffamily%3DArchitects%2BDaughter;labelBackgroundColor=none;rounded=0;" vertex="1" parent="1">
          <mxGeometry x="-122" y="339" width="80" height="40" as="geometry" />
        </mxCell>
        <mxCell id="-FksHN_BNnJyAKAI8ABf-4" value="no" style="edgeStyle=orthogonalEdgeStyle;html=1;align=left;verticalAlign=bottom;endArrow=open;endSize=8;rounded=0;sketch=1;hachureGap=4;jiggle=2;curveFitting=1;fontFamily=Architects Daughter;fontSource=https%3A%2F%2Ffonts.googleapis.com%2Fcss%3Ffamily%3DArchitects%2BDaughter;labelBackgroundColor=none;fontColor=default;" edge="1" source="-FksHN_BNnJyAKAI8ABf-3" parent="1">
          <mxGeometry x="-1" relative="1" as="geometry">
            <mxPoint x="58" y="359" as="targetPoint" />
          </mxGeometry>
        </mxCell>
        <mxCell id="-FksHN_BNnJyAKAI8ABf-5" value="yes" style="edgeStyle=orthogonalEdgeStyle;html=1;align=left;verticalAlign=top;endArrow=open;endSize=8;rounded=0;sketch=1;hachureGap=4;jiggle=2;curveFitting=1;fontFamily=Architects Daughter;fontSource=https%3A%2F%2Ffonts.googleapis.com%2Fcss%3Ffamily%3DArchitects%2BDaughter;labelBackgroundColor=none;fontColor=default;" edge="1" source="-FksHN_BNnJyAKAI8ABf-3" parent="1">
          <mxGeometry x="-1" relative="1" as="geometry">
            <mxPoint x="-82" y="439" as="targetPoint" />
          </mxGeometry>
        </mxCell>
      </root>
    </mxGraphModel>
  </diagram>
</mxfile>
